# xmcd
#
# Track frame offsets: 
#        150
#        16518
#        31121
#        47488
#
# Disc length: 824 seconds
#
# Revision: 6
# Processed by: cddbd v1.5.2PL0 Copyright (c) Steve Scherf et al.
# Submitted via: ExactAudioCopy v1.3
#
DISCID=1b033604
DTITLE=SPYAIR - サクラミツツキ
DYEAR=2013
DGENRE=JPop
TTITLE0=サクラミツツキ
TTITLE1=Turning Point
TTITLE2=サクラミツツキ (inst.)
TTITLE3=Turning Point (inst.)
EXTD=Updated for correct listing with Latin Alphabet YEAR: 1998
EXTT0=
EXTT1=
EXTT2=
EXTT3=
PLAYORDER=
